<svg xmlns="http://www.w3.org/2000/svg" viewBox="0 0 600 600"><path fill="#88c1d0" d="M0 0h600v501.484H0z"/><path d="M152.511 542.01c-1.37-1.37-2.968-2.512-4.908-3.311-1.94-.8-4.224-1.256-6.85-1.256h-19.977v51.141h9.703v-19.292h10.274c2.626 0 4.91-.456 6.85-1.37 2.055-.799 3.653-1.94 4.908-3.424 1.37-1.484 2.284-3.082 2.968-4.909a15.66 15.66 0 0 0 1.028-5.594v-1.712c0-1.94-.343-3.653-1.028-5.48a14.74 14.74 0 0 0-2.968-4.794zm-5.707 11.757c0 1.94-.571 3.425-1.827 4.566-1.141 1.142-2.854 1.713-5.023 1.713h-9.475l-.114-13.47h9.475c2.17 0 3.881.57 5.137 1.712 1.256 1.255 1.827 2.74 1.827 4.566v.913zm40.753-16.438h-21.461v8.79h12.329v33.675h-12.672l-.114 8.676h33.79v-8.79h-11.872V537.33zm56.621 40.41v-25.342h-9.246v4.338h-1.37c-.914-1.826-2.17-3.196-3.767-4.11-1.599-.798-3.653-1.255-6.279-1.255a15.09 15.09 0 0 0-6.05 1.256 13.828 13.828 0 0 0-4.909 3.653c-1.37 1.598-2.511 3.538-3.31 5.821s-1.256 4.91-1.256 7.763v1.142c0 2.968.342 5.593 1.256 7.876.799 2.283 1.94 4.224 3.424 5.822 1.484 1.598 3.197 2.854 5.137 3.653 1.94.8 3.996 1.256 6.165 1.256 2.397 0 4.452-.57 6.164-1.484 1.827-1.028 3.082-2.626 4.11-4.909l1.255.229c0 1.484.571 2.74 1.598 3.767 1.142 1.027 2.398 1.484 4.11 1.484h6.279v-8.79h-1.37c-1.256 0-1.94-.685-1.94-2.17zm-9.36-6.963c0 3.082-.8 5.48-2.398 7.306-1.598 1.712-3.767 2.626-6.393 2.626-2.74 0-4.794-.8-6.392-2.626-1.598-1.826-2.398-4.224-2.398-7.306v-.913c0-3.082.8-5.48 2.398-7.306 1.598-1.712 3.767-2.626 6.392-2.626 2.626 0 4.795.8 6.393 2.626 1.598 1.827 2.397 4.224 2.397 7.306v.913zm39.611-33.561h-9.246v14.954h-10.73v8.79h10.73v21.804c0 1.712.57 3.082 1.598 4.11 1.141 1.027 2.397 1.597 4.11 1.597h15.296v-8.79h-9.817c-1.256 0-1.94-.685-1.94-2.169V560.96h13.127v-8.79H274.43v-14.954zm56.05 19.52c-1.484-1.598-3.31-2.968-5.593-4.11-2.17-1.027-4.909-1.598-7.991-1.598-2.511 0-4.909.457-7.078 1.37-2.283.914-4.223 2.17-5.822 3.767-1.598 1.599-2.968 3.54-3.88 5.822-.914 2.283-1.37 4.909-1.37 7.649v.456c0 2.968.456 5.708 1.37 8.105.912 2.398 2.168 4.452 3.766 6.05 1.598 1.599 3.54 2.854 5.822 3.768 2.17.799 4.68 1.255 7.42 1.255 2.398 0 4.452-.228 6.279-.799 1.826-.57 3.31-1.255 4.566-2.054 1.256-.8 2.283-1.713 3.082-2.74.8-.913 1.37-1.94 1.827-2.854L325 576.484c-.57 1.142-1.37 2.055-2.626 2.854-1.255.799-2.968 1.256-5.25 1.256-1.142 0-2.284-.229-3.311-.571-1.028-.343-1.94-.8-2.74-1.484a6.29 6.29 0 0 1-1.94-2.283c-.457-.914-.8-1.94-.8-2.968l26.37-.114v-4.909c0-1.94-.342-3.881-1.027-5.936a16.177 16.177 0 0 0-3.197-5.594zm-22.031 8.676a8.21 8.21 0 0 1 2.853-4.11c1.484-1.255 3.425-1.826 5.708-1.826s4.224.57 5.822 1.712c1.484 1.142 2.397 2.512 2.74 4.224h-17.123zm55.707-17.123c0-1.484.571-2.17 1.94-2.17h10.96v-8.79h-14.726c-2.055 0-3.881.686-5.251 2.17-1.484 1.37-2.17 3.196-2.17 5.25v7.42h-10.273v8.905h10.274v27.511h9.246v-27.51h14.27v-8.79h-14.27v-3.996zm55.251 7.648c-1.826-1.598-3.767-2.854-6.05-3.653a20.494 20.494 0 0 0-7.077-1.256c-2.398 0-4.795.457-7.078 1.256a17.187 17.187 0 0 0-6.05 3.653 19.73 19.73 0 0 0-4.11 5.936c-1.027 2.283-1.484 4.909-1.484 7.877v.913c.114 2.968.57 5.708 1.598 7.991 1.028 2.283 2.512 4.224 4.224 5.822 1.827 1.598 3.767 2.854 6.05 3.653a20.496 20.496 0 0 0 7.078 1.256c2.397 0 4.794-.457 7.078-1.256 2.283-.913 4.337-2.055 6.05-3.653 1.712-1.598 3.082-3.539 4.11-5.822 1.027-2.283 1.483-5.023 1.483-7.99v-.914c-.114-2.968-.57-5.594-1.598-7.877-1.027-2.397-2.511-4.338-4.224-5.936zm-3.31 14.84c0 1.598-.343 2.968-.8 4.11-.456 1.256-1.14 2.283-2.054 3.082-.913.913-1.94 1.484-3.082 1.94-1.256.457-2.397.686-3.767.686s-2.626-.229-3.767-.685c-1.142-.457-2.17-1.142-3.083-1.94-.799-.914-1.598-1.942-2.054-3.083-.571-1.256-.8-2.626-.8-4.11v-1.484c0-1.598.343-2.968.8-4.11.456-1.255 1.141-2.282 2.054-3.081.914-.914 1.941-1.484 3.083-1.941 1.255-.457 2.397-.685 3.767-.685s2.625.228 3.767.685c1.141.457 2.169 1.141 3.082 1.94.8.914 1.598 1.941 2.055 3.083.57 1.255.799 2.625.799 4.11v1.483zm42.58-19.749c-2.397 0-4.338.457-5.936 1.599-1.598 1.141-2.74 2.625-3.425 4.68h-1.37v-5.251h-15.297l.115 8.79h6.62v18.721h-7.42v8.79h25v-8.79h-8.333v-11.644c0-2.625.571-4.68 1.713-6.05 1.141-1.484 2.74-2.169 4.794-2.169s3.539.685 4.566 1.827c.914 1.255 1.484 2.853 1.484 4.794v1.028l9.475-.914v-1.598c0-4.68-1.141-8.105-3.31-10.388-2.17-2.283-5.023-3.425-8.676-3.425zm54.68 2.17c-1.484-1.599-3.425-2.398-5.822-2.398-1.94 0-3.425.457-4.68 1.256-1.142.913-2.055 1.94-2.397 3.31h-1.37c-.457-1.256-1.142-2.397-2.283-3.196-1.142-.8-2.512-1.256-4.11-1.256-1.712 0-3.082.457-4.11 1.256-1.141.913-1.712 1.94-2.054 3.31h-1.37v-3.538h-9.247v36.3h9.247v-25c0-1.14.342-2.054.913-2.625.57-.57 1.256-.913 2.169-.913.8 0 1.484.343 2.055.8s.799 1.255.799 2.282v25.457h9.246v-25c0-1.142.229-2.055.8-2.626.57-.57 1.255-.913 2.283-.913.913 0 1.484.343 2.054.8.571.456.8 1.255.8 2.282v25.457h9.246v-28.31c0-2.854-.685-5.138-2.169-6.736zm44.977 14.84c0-1.941-.342-3.882-1.027-5.936a16.177 16.177 0 0 0-3.196-5.594c-1.484-1.598-3.31-2.968-5.594-4.11-2.169-1.027-4.909-1.598-7.99-1.598-2.512 0-4.91.457-7.078 1.37-2.284.913-4.224 2.169-5.822 3.767-1.598 1.598-2.968 3.539-3.882 5.822-.913 2.283-1.37 4.909-1.37 7.648v.457c0 2.968.457 5.708 1.37 8.105a18.114 18.114 0 0 0 3.768 6.05c1.598 1.598 3.538 2.854 5.821 3.767 2.17.8 4.68 1.256 7.42 1.256 2.398 0 4.453-.228 6.279-.8 1.827-.57 3.31-1.255 4.566-2.054 1.256-.799 2.283-1.826 3.082-2.74.8-.913 1.37-1.94 1.827-2.853l-7.877-4.338c-.57 1.141-1.37 2.054-2.625 2.854-1.256.799-2.968 1.255-5.251 1.255-1.142 0-2.284-.228-3.311-.57-1.027-.343-1.94-.8-2.74-1.485-.799-.57-1.484-1.37-1.94-2.283s-.8-1.94-.8-2.968l26.37-.114v-4.908zm-26.255-2.854a8.209 8.209 0 0 1 2.853-4.11c1.484-1.256 3.425-1.826 5.708-1.826 2.398 0 4.338.57 5.822 1.712 1.484 1.141 2.397 2.511 2.74 4.224h-17.123zM10.616 537.785H.913l.114 51.256h32.877v-9.247H10.616v-42.009zm68.265 40.526v-25.343h-9.246v4.338h-1.37c-.913-1.827-2.17-3.196-3.767-4.11-1.598-.799-3.653-1.255-6.279-1.255-2.169 0-4.224.456-6.05 1.255a13.827 13.827 0 0 0-4.909 3.653c-1.37 1.598-2.511 3.54-3.31 5.822-.8 2.283-1.256 4.909-1.256 7.763v1.141c0 2.854.343 5.48 1.256 7.763.799 2.283 1.94 4.224 3.424 5.822 1.484 1.598 3.197 2.854 5.137 3.653 1.941.799 3.996 1.255 6.165 1.255 2.397 0 4.452-.57 6.164-1.484 1.827-1.027 3.082-2.625 4.11-4.908l1.255.342c0 1.484.571 2.74 1.599 3.767 1.141 1.028 2.397 1.484 4.11 1.484h6.278v-8.79h-1.37c-1.256 0-1.94-.685-1.94-2.168zm-9.36-7.078c0 3.082-.8 5.48-2.398 7.306-1.598 1.712-3.767 2.625-6.392 2.625-2.74 0-4.795-.799-6.393-2.625-1.598-1.827-2.397-4.224-2.397-7.306v-.913c0-3.083.799-5.48 2.397-7.306 1.598-1.713 3.767-2.626 6.393-2.626s4.794.8 6.392 2.626c1.598 1.826 2.398 4.223 2.398 7.306v.913z"/><path d="M174.087 352.055l.228 39.04c12.9 2.17 20.662 9.932 26.142 15.412 5.593 5.707 7.99 7.99 14.383 7.99h.114c5.366 0 7.649-1.94 12.786-6.62.456-.457 1.027-1.028 1.598-1.484 6.393-6.393 15.982-15.868 33.333-15.982h.228c17.695 0 27.398 9.703 33.79 16.096 5.594 5.707 7.991 7.99 14.384 7.99h.114c5.366 0 7.649-1.94 12.786-6.62.456-.457 1.027-1.028 1.598-1.484 6.392-6.393 15.981-15.868 33.333-15.982h.228c17.694 0 27.398 9.703 33.79 16.096 5.594 5.708 7.991 7.99 14.384 7.99h.114c5.365 0 7.648-1.94 12.785-6.62.457-.457 1.028-1.028 1.599-1.484 4.452-4.452 10.388-10.274 19.977-13.813l-.229-40.525H174.087z" fill="none"/><path d="M116.895 180.48v40.867H500v-40.868H116.895zm20.32 27.283a6.735 6.735 0 1 1 0-13.47 6.735 6.735 0 0 1 0 13.47zm21.575-.115a6.735 6.735 0 1 1 0-13.47 6.735 6.735 0 0 1 0 13.47zm21.918-.114a6.735 6.735 0 1 1 0-13.47 6.735 6.735 0 0 1 0 13.47zm298.402.457l-71.804.456c-4.224 0-7.763-3.424-7.763-7.648s3.425-7.763 7.649-7.763l71.803-.456c4.224 0 7.763 3.425 7.763 7.648 0 4.224-3.31 7.763-7.648 7.763zm-362.215 70.548H500V237.67H116.895v40.868zm64.27-26.598a6.735 6.735 0 1 1 0 13.47 6.735 6.735 0 0 1 0-13.47zm-22.033.114a6.735 6.735 0 1 1 0 13.47 6.735 6.735 0 0 1 0-13.47zm-21.575.114a6.735 6.735 0 1 1 0 13.47 6.735 6.735 0 0 1 0-13.47zm-20.662 84.589H500v-41.78H116.895v41.78zm291.096-27.511l71.804-.457c4.223 0 7.762 3.425 7.762 7.648.114 4.338-3.31 7.763-7.648 7.763l-71.804.456c-4.224 0-7.763-3.424-7.763-7.648s3.425-7.762 7.649-7.762zm-226.484 2.74a6.735 6.735 0 1 1 0 13.47 6.735 6.735 0 0 1 0-13.47zm-21.918.113a6.735 6.735 0 1 1 0 13.47 6.735 6.735 0 0 1 0-13.47zm-21.575.115a6.735 6.735 0 1 1 0 13.47 6.735 6.735 0 0 1 0-13.47z" fill="#ffca4b"/><path d="M80.023 185.959c-1.484-3.996-5.936-6.05-9.932-4.566l-33.79 12.67c-3.995 1.485-6.05 5.937-4.566 9.932 1.142 3.083 4.11 5.023 7.306 5.023.913 0 1.827-.114 2.626-.456l33.79-12.672c3.995-1.484 6.05-5.936 4.566-9.931zm-42.808-31.85l28.653 13.014a8.059 8.059 0 0 0 3.196.685c2.968 0 5.708-1.712 7.078-4.566 1.712-3.881 0-8.562-3.882-10.274l-28.653-13.014c-3.881-1.712-8.561 0-10.274 3.882-1.712 3.88 0 8.561 3.882 10.274zm48.516-7.305c1.141 3.082 4.11 5.022 7.305 5.022.914 0 1.827-.114 2.626-.456 3.996-1.484 6.05-5.936 4.566-9.932l-12.671-33.79c-1.484-3.995-5.936-6.05-9.931-4.566-3.996 1.484-6.05 5.936-4.567 9.932l12.672 33.79zm478.424 444.863V600H600v-8.333h-35.845zm-15.525-201.37h-.228c-17.352.114-26.94 9.589-33.334 15.982-.57.456-1.141 1.027-1.598 1.484-5.137 4.68-7.42 6.62-12.9 6.62-6.392 0-8.79-2.283-14.383-7.99-6.278-6.279-15.64-15.64-32.534-16.096l-.228-38.128h51.255c2.055 0 3.996-.8 5.366-2.283a7.688 7.688 0 0 0 2.283-5.48V230.023v-57.42c0-4.224-3.425-7.763-7.763-7.763h-398.63c-2.055 0-3.995.8-5.365 2.283a7.688 7.688 0 0 0-2.283 5.48v171.803c0 4.224 3.424 7.763 7.762 7.763h48.973l.228 39.155c-12.671 2.283-20.434 9.932-25.799 15.297-.57.457-1.142 1.027-1.598 1.484-5.137 4.68-7.42 6.62-12.785 6.62h-.115c-6.392 0-8.79-2.282-14.383-7.99-6.393-6.393-16.096-16.096-33.79-16.096-4.224 0-7.649 3.425-7.649 7.763 0 4.223 3.425 7.762 7.763 7.762 11.301 0 17.123 5.936 22.831 11.53 6.393 6.393 12.557 12.443 25.343 12.443 11.643 0 17.922-5.708 23.401-10.73.571-.457 1.142-1.028 1.713-1.485.114-.114.228-.228.342-.228 5.708-5.708 11.53-11.53 22.717-11.644h.228c11.302 0 17.124 5.936 22.831 11.53 6.393 6.392 12.557 12.443 25.343 12.443 11.644 0 17.922-5.708 23.402-10.73.57-.458 1.141-1.028 1.712-1.485.114-.114.228-.228.342-.228 5.708-5.708 11.53-11.53 22.717-11.644h.229c11.301 0 17.123 5.936 22.83 11.53 6.393 6.392 12.558 12.443 25.343 12.443 11.644 0 17.923-5.708 23.402-10.731.57-.457 1.142-1.027 1.712-1.484.114-.114.229-.228.343-.228 5.708-5.708 11.53-11.53 22.717-11.644h.228c11.301 0 17.123 5.936 22.831 11.53 6.393 6.392 12.557 12.442 25.343 12.442 11.643.115 17.922-5.707 23.401-10.73.571-.457 1.142-1.028 1.713-1.484.114-.114.228-.229.342-.229 5.708-5.707 11.53-11.53 22.717-11.643h.228c11.302 0 17.124 5.936 22.831 11.53 6.393 6.392 12.557 12.442 25.343 12.442h.228c11.53-.114 17.694-5.708 23.174-10.73.57-.457 1.141-1.028 1.712-1.484.114-.115.228-.229.342-.229 5.708-5.707 11.644-11.53 22.832-11.644 4.337 0 7.762-3.424 7.762-7.762-1.027-4.11-4.452-7.534-8.79-7.534zM113.7 180.479h383.105v40.868H113.699v-40.868zm0 57.192h383.105v40.868H113.699V237.67zm304.908 168.722c-.57.456-1.141 1.027-1.598 1.484-5.137 4.68-7.42 6.62-12.785 6.62h-.114c-6.393 0-8.79-2.282-14.384-7.99-6.393-6.393-16.096-16.096-33.79-16.096h-.228c-17.352.114-26.94 9.589-33.334 15.982-.57.456-1.141 1.027-1.598 1.484-5.137 4.68-7.42 6.62-12.785 6.62h-.114c-6.393 0-8.79-2.283-14.384-7.99-6.393-6.393-16.096-16.096-33.79-16.096h-.228c-17.352.114-26.94 9.589-33.334 15.982-.57.456-1.141 1.027-1.598 1.484-5.137 4.68-7.42 6.62-12.785 6.62h-.114c-6.393 0-8.79-2.283-14.384-7.99-5.48-5.48-13.242-13.242-26.141-15.411l-.229-39.041h267.466l.228 40.525c-9.589 3.539-15.525 9.36-19.977 13.813zM113.7 336.758v-41.78h383.105v41.78H113.699zm42.237-84.703a6.735 6.735 0 1 0 0 13.47 6.735 6.735 0 0 0 0-13.47zm22.374 59.931a6.735 6.735 0 1 0 0 13.47 6.735 6.735 0 0 0 0-13.47zm-.342-60.045a6.735 6.735 0 1 0 0 13.47 6.735 6.735 0 0 0 0-13.47zm298.63 56.849l-71.804.457c-4.223 0-7.648 3.538-7.648 7.762s3.539 7.648 7.763 7.648l71.803-.456c4.338 0 7.763-3.425 7.649-7.763 0-4.223-3.54-7.648-7.763-7.648zm-341.78 3.425a6.735 6.735 0 1 0 0 13.47 6.735 6.735 0 0 0 0-13.47zm21.575-.115a6.735 6.735 0 1 0 0 13.47 6.735 6.735 0 0 0 0-13.47zm21.118-118.036a6.735 6.735 0 1 0 0 13.47 6.735 6.735 0 0 0 0-13.47zm-43.15 58.105a6.735 6.735 0 1 0 0 13.47 6.735 6.735 0 0 0 0-13.47zm341.438-59.59l-71.804.457c-4.223 0-7.648 3.54-7.648 7.763 0 4.224 3.539 7.648 7.763 7.648l71.803-.456c4.338 0 7.649-3.539 7.649-7.763 0-4.223-3.54-7.648-7.763-7.648zm-320.205 1.6a6.735 6.735 0 1 0 0 13.47 6.735 6.735 0 0 0 0-13.47zm-21.576.113a6.735 6.735 0 1 0 0 13.47 6.735 6.735 0 0 0 0-13.47z" fill="#275fa0"/></svg>